<svg width="85" height="33" viewBox="0 0 85 33" fill="none" xmlns="http://www.w3.org/2000/svg">
<path d="M5.91 27.3C4.31 27.3 3.09 26.85 2.25 25.95C1.41 25.03 0.99 23.72 0.99 22.02V10.98C0.99 9.28 1.41 7.98 2.25 7.08C3.09 6.16 4.31 5.7 5.91 5.7C7.51 5.7 8.73 6.16 9.57 7.08C10.41 7.98 10.83 9.28 10.83 10.98V12.78H7.71V10.77C7.71 9.39 7.14 8.7 6 8.7C4.86 8.7 4.29 9.39 4.29 10.77V22.26C4.29 23.62 4.86 24.3 6 24.3C7.14 24.3 7.71 23.62 7.71 22.26V18.15H6.06V15.15H10.83V22.02C10.83 23.72 10.41 25.03 9.57 25.95C8.73 26.85 7.51 27.3 5.91 27.3ZM12.9488 6H21.9488V9H16.2488V14.55H20.7788V17.55H16.2488V24H21.9488V27H12.9488V6ZM23.8472 6H32.8472V9H27.1472V14.55H31.6772V17.55H27.1472V24H32.8472V27H23.8472V6ZM34.7456 6H38.0456V14.85L42.2456 6H45.5456L41.6156 13.71L45.6056 27H42.1556L39.3656 17.64L38.0456 20.31V27H34.7456V6Z" fill="black"/>
<path d="M47.1675 6H55.8975V9H50.4675V14.85H54.7275V17.85H50.4675V27H47.1675V6ZM57.48 6H60.78V24H66.21V27H57.48V6ZM67.7925 6H71.0925V27H67.7925V6ZM76.474 16.26L72.844 6H76.324L78.544 12.78H78.604L80.884 6H84.004L80.374 16.26L84.184 27H80.704L78.304 19.68H78.244L75.784 27H72.664L76.474 16.26Z" fill="#E70F0F"/>
<path d="M0 29.4H45.9356V31.8H0V29.4Z" fill="black"/>
<path d="M45.9375 29.4H84.514V31.8H45.9375V29.4Z" fill="#E70F0F"/>
</svg>
