<svg width="136" height="51" viewBox="0 0 136 51" fill="none" xmlns="http://www.w3.org/2000/svg">
<path d="M9.456 43.48C6.896 43.48 4.944 42.76 3.6 41.32C2.256 39.848 1.584 37.752 1.584 35.032V17.368C1.584 14.648 2.256 12.568 3.6 11.128C4.944 9.656 6.896 8.92 9.456 8.92C12.016 8.92 13.968 9.656 15.312 11.128C16.656 12.568 17.328 14.648 17.328 17.368V20.248H12.336V17.032C12.336 14.824 11.424 13.72 9.6 13.72C7.776 13.72 6.864 14.824 6.864 17.032V35.416C6.864 37.592 7.776 38.68 9.6 38.68C11.424 38.68 12.336 37.592 12.336 35.416V28.84H9.696V24.04H17.328V35.032C17.328 37.752 16.656 39.848 15.312 41.32C13.968 42.76 12.016 43.48 9.456 43.48ZM20.718 9.4H35.118V14.2H25.998V23.08H33.246V27.88H25.998V38.2H35.118V43H20.718V9.4ZM38.1555 9.4H52.5555V14.2H43.4355V23.08H50.6835V27.88H43.4355V38.2H52.5555V43H38.1555V9.4ZM55.593 9.4H60.873V23.56L67.593 9.4H72.873L66.585 21.736L72.969 43H67.449L62.985 28.024L60.873 32.296V43H55.593V9.4Z" fill="#FAF8F8"/>
<path d="M75.468 9.4H89.436V14.2H80.748V23.56H87.564V28.36H80.748V43H75.468V9.4ZM91.968 9.4H97.248V38.2H105.936V43H91.968V9.4ZM108.468 9.4H113.748V43H108.468V9.4ZM122.358 25.816L116.55 9.4H122.118L125.67 20.248H125.766L129.414 9.4H134.406L128.598 25.816L134.694 43H129.126L125.286 31.288H125.19L121.254 43H116.262L122.358 25.816Z" fill="#E70F0F"/>
<path d="M0 46.84H73.497V50.68H0V46.84Z" fill="#FAF8F8"/>
<path d="M73.5 46.84H135.222V50.68H73.5V46.84Z" fill="#E70F0F"/>
</svg>

